<?xml version="1.0" standalone="no"?><svg xmlns="http://www.w3.org/2000/svg" viewBox="0 0 1440 320"><path fill="#b5c00c" fill-opacity="1" d="M0,96L30,117.3C60,139,120,181,180,192C240,203,300,181,360,176C420,171,480,181,540,154.7C600,128,660,64,720,53.3C780,43,840,85,900,138.7C960,192,1020,256,1080,272C1140,288,1200,256,1260,218.7C1320,181,1380,139,1410,117.3L1440,96L1440,320L1410,320C1380,320,1320,320,1260,320C1200,320,1140,320,1080,320C1020,320,960,320,900,320C840,320,780,320,720,320C660,320,600,320,540,320C480,320,420,320,360,320C300,320,240,320,180,320C120,320,60,320,30,320L0,320Z"></path></svg>